<svg width="57" height="40" viewBox="0 0 57 40" fill="none" xmlns="http://www.w3.org/2000/svg">
<rect x="19" y="0.255371" width="38" height="38" rx="19" fill="#D0F1FF"/>
<path fill-rule="evenodd" clip-rule="evenodd" d="M43 12.2554H33C32.7348 12.2554 32.4804 12.3607 32.2929 12.5483C32.1054 12.7358 32 12.9902 32 13.2554V25.2554C32 25.5206 32.1054 25.7749 32.2929 25.9625C32.4804 26.15 32.7348 26.2554 33 26.2554H43C43.2652 26.2554 43.5196 26.15 43.7071 25.9625C43.8946 25.7749 44 25.5206 44 25.2554V13.2554C44 12.9902 43.8946 12.7358 43.7071 12.5483C43.5196 12.3607 43.2652 12.2554 43 12.2554ZM33 10.2554C32.2044 10.2554 31.4413 10.5714 30.8787 11.1341C30.3161 11.6967 30 12.4597 30 13.2554V25.2554C30 26.051 30.3161 26.8141 30.8787 27.3767C31.4413 27.9393 32.2044 28.2554 33 28.2554H43C43.7956 28.2554 44.5587 27.9393 45.1213 27.3767C45.6839 26.8141 46 26.051 46 25.2554V13.2554C46 12.4597 45.6839 11.6967 45.1213 11.1341C44.5587 10.5714 43.7956 10.2554 43 10.2554H33Z" fill="#96C4D8"/>
<path d="M34 14.2554H42V16.2554H34V14.2554ZM34 18.2554H42V20.2554H34V18.2554ZM34 22.2554H39V24.2554H34V22.2554Z" fill="#96C4D8"/>
<circle cx="19" cy="20.2554" r="19" fill="#E5F7FF"/>
<path d="M19 12.2554C18.7348 12.2554 18.4804 12.3607 18.2929 12.5483C18.1054 12.7358 18 12.9902 18 13.2554V19.2554H12C11.7348 19.2554 11.4804 19.3607 11.2929 19.5483C11.1054 19.7358 11 19.9902 11 20.2554C11 20.5206 11.1054 20.7749 11.2929 20.9625C11.4804 21.15 11.7348 21.2554 12 21.2554H18V27.2554C18 27.5206 18.1054 27.7749 18.2929 27.9625C18.4804 28.15 18.7348 28.2554 19 28.2554C19.2652 28.2554 19.5196 28.15 19.7071 27.9625C19.8946 27.7749 20 27.5206 20 27.2554V21.2554H26C26.2652 21.2554 26.5196 21.15 26.7071 20.9625C26.8946 20.7749 27 20.5206 27 20.2554C27 19.9902 26.8946 19.7358 26.7071 19.5483C26.5196 19.3607 26.2652 19.2554 26 19.2554H20V13.2554C20 12.9902 19.8946 12.7358 19.7071 12.5483C19.5196 12.3607 19.2652 12.2554 19 12.2554Z" fill="#5FA7C6"/>
</svg>
