<svg width="16" height="14" viewBox="0 0 16 14" fill="none" xmlns="http://www.w3.org/2000/svg">
<path d="M6.125 0.4375C5.54314 0.437195 4.97551 0.617365 4.50033 0.953178C4.02515 1.28899 3.66583 1.76392 3.47188 2.3125H0.5V4.1875H3.47188C3.66556 4.73644 4.02476 5.21178 4.49994 5.54801C4.97512 5.88424 5.54289 6.0648 6.125 6.0648C6.70711 6.0648 7.27488 5.88424 7.75006 5.54801C8.22524 5.21178 8.58444 4.73644 8.77812 4.1875H15.5V2.3125H8.77812C8.58417 1.76392 8.22485 1.28899 7.74967 0.953178C7.27449 0.617365 6.70686 0.437195 6.125 0.4375ZM5.1875 3.25C5.1875 3.00136 5.28627 2.7629 5.46209 2.58709C5.6379 2.41127 5.87636 2.3125 6.125 2.3125C6.37364 2.3125 6.6121 2.41127 6.78791 2.58709C6.96373 2.7629 7.0625 3.00136 7.0625 3.25C7.0625 3.49864 6.96373 3.7371 6.78791 3.91291C6.6121 4.08873 6.37364 4.1875 6.125 4.1875C5.87636 4.1875 5.6379 4.08873 5.46209 3.91291C5.28627 3.7371 5.1875 3.49864 5.1875 3.25ZM9.875 7.9375C9.29314 7.9372 8.72551 8.11737 8.25033 8.45318C7.77515 8.78899 7.41583 9.26392 7.22188 9.8125H0.5V11.6875H7.22188C7.41556 12.2364 7.77476 12.7118 8.24994 13.048C8.72512 13.3842 9.29289 13.5648 9.875 13.5648C10.4571 13.5648 11.0249 13.3842 11.5001 13.048C11.9752 12.7118 12.3344 12.2364 12.5281 11.6875H15.5V9.8125H12.5281C12.3342 9.26392 11.9748 8.78899 11.4997 8.45318C11.0245 8.11737 10.4569 7.9372 9.875 7.9375ZM8.9375 10.75C8.9375 10.5014 9.03627 10.2629 9.21209 10.0871C9.3879 9.91127 9.62636 9.8125 9.875 9.8125C10.1236 9.8125 10.3621 9.91127 10.5379 10.0871C10.7137 10.2629 10.8125 10.5014 10.8125 10.75C10.8125 10.9986 10.7137 11.2371 10.5379 11.4129C10.3621 11.5887 10.1236 11.6875 9.875 11.6875C9.62636 11.6875 9.3879 11.5887 9.21209 11.4129C9.03627 11.2371 8.9375 10.9986 8.9375 10.75Z" fill="#8D8F9A"/>
</svg>
