<svg width="17" height="16" viewBox="0 0 17 16" fill="none" xmlns="http://www.w3.org/2000/svg">
<path d="M8.84093 15.6387C3.56787 15.6387 2.159 10.1419 2.79584 6.54038C2.82356 6.38363 3.02903 6.33848 3.11856 6.4701C3.39581 6.8776 3.64253 7.46619 4.05131 7.4151C4.66571 7.33829 5.09137 1.91679 8.73278 0.39132C8.84834 0.342914 8.96925 0.434757 8.95656 0.559382C8.7765 2.32604 9.83721 4.85526 11.7164 4.85526C12.7937 4.85526 13.5307 3.99551 13.8991 3.13207C14.0109 2.86979 14.3942 2.90285 14.4583 3.18069C15.1155 6.02701 16.8724 15.6387 8.84093 15.6387Z" fill="#C9C9C9"/>
<path d="M6.99239 10.3384C7.11639 10.2342 7.30465 10.3057 7.3328 10.4652C7.39868 10.8384 7.6153 11.4798 8.32586 11.4798C9.18061 11.4798 9.76068 9.12783 9.9128 8.43611C9.93783 8.3223 10.0487 8.24502 10.1629 8.26824C12.299 8.70255 13.3376 15.6388 8.64096 15.6388C5.22183 15.6388 5.99643 11.1751 6.99239 10.3384ZM12.8293 2.82674C12.9046 2.23793 11.8297 3.84839 11.8297 3.84839C11.8297 3.84839 12.6492 4.23546 12.8293 2.82674ZM1.99886 11.6081C2.02152 11.3574 1.69905 10.6863 1.64196 10.952C1.5053 11.5877 1.97621 11.8587 1.99886 11.6081Z" fill="#B7B7B7"/>
<path d="M10.5993 10.8936C10.5192 10.5596 10.2319 11.3355 10.268 11.6516C10.3041 11.9676 10.7909 11.6929 10.5993 10.8936Z" fill="#A4A4A4"/>
</svg>
