<svg width="38" height="39" viewBox="0 0 38 39" fill="none" xmlns="http://www.w3.org/2000/svg">
<rect y="0.255371" width="38" height="38" rx="19" fill="#E5F7FF"/>
<path fill-rule="evenodd" clip-rule="evenodd" d="M24 12.2554H14C13.7348 12.2554 13.4804 12.3607 13.2929 12.5483C13.1054 12.7358 13 12.9902 13 13.2554V25.2554C13 25.5206 13.1054 25.7749 13.2929 25.9625C13.4804 26.15 13.7348 26.2554 14 26.2554H24C24.2652 26.2554 24.5196 26.15 24.7071 25.9625C24.8946 25.7749 25 25.5206 25 25.2554V13.2554C25 12.9902 24.8946 12.7358 24.7071 12.5483C24.5196 12.3607 24.2652 12.2554 24 12.2554ZM14 10.2554C13.2044 10.2554 12.4413 10.5714 11.8787 11.1341C11.3161 11.6967 11 12.4597 11 13.2554V25.2554C11 26.051 11.3161 26.8141 11.8787 27.3767C12.4413 27.9393 13.2044 28.2554 14 28.2554H24C24.7956 28.2554 25.5587 27.9393 26.1213 27.3767C26.6839 26.8141 27 26.051 27 25.2554V13.2554C27 12.4597 26.6839 11.6967 26.1213 11.1341C25.5587 10.5714 24.7956 10.2554 24 10.2554H14Z" fill="#5FA7C6"/>
<path d="M15 14.2554H23V16.2554H15V14.2554ZM15 18.2554H23V20.2554H15V18.2554ZM15 22.2554H20V24.2554H15V22.2554Z" fill="#5FA7C6"/>
</svg>
