<svg width="16" height="16" viewBox="0 0 16 16" fill="none" xmlns="http://www.w3.org/2000/svg">
<path fill-rule="evenodd" clip-rule="evenodd" d="M7.99966 1.33334C11.6816 1.33334 14.6664 4.31809 14.6664 8C14.6664 11.6819 11.6816 14.6667 7.99966 14.6667C4.31779 14.6667 1.33301 11.6819 1.33301 8C1.33301 4.31809 4.31779 1.33334 7.99966 1.33334ZM8.66779 7.33334H7.33448V11.3333H8.66779V7.33334ZM8.00645 4.5C7.52038 4.5 7.16779 4.85062 7.16779 5.32409C7.16779 5.81672 7.5111 6.16669 8.00645 6.16669C8.48254 6.16669 8.83448 5.81669 8.83448 5.33334C8.83448 4.85066 8.48254 4.5 8.00645 4.5Z" fill="#2B3854"/>
</svg>
