<svg width="16" height="16" viewBox="0 0 16 16" fill="none" xmlns="http://www.w3.org/2000/svg">
<path d="M2.5 2C2.10218 2 1.72064 2.15804 1.43934 2.43934C1.15804 2.72064 1 3.10218 1 3.5V6.5C1 6.89782 1.15804 7.27936 1.43934 7.56066C1.72064 7.84196 2.10218 8 2.5 8H13.5C13.8978 8 14.2794 7.84196 14.5607 7.56066C14.842 7.27936 15 6.89782 15 6.5V3.5C15 3.10218 14.842 2.72064 14.5607 2.43934C14.2794 2.15804 13.8978 2 13.5 2H2.5ZM2.5 10C2.10218 10 1.72064 10.158 1.43934 10.4393C1.15804 10.7206 1 11.1022 1 11.5V12.5C1 12.8978 1.15804 13.2794 1.43934 13.5607C1.72064 13.842 2.10218 14 2.5 14H5.5C5.89782 14 6.27936 13.842 6.56066 13.5607C6.84196 13.2794 7 12.8978 7 12.5V11.5C7 11.1022 6.84196 10.7206 6.56066 10.4393C6.27936 10.158 5.89782 10 5.5 10H2.5ZM10.5 10C10.1022 10 9.72064 10.158 9.43934 10.4393C9.15804 10.7206 9 11.1022 9 11.5V12.5C9 12.8978 9.15804 13.2794 9.43934 13.5607C9.72064 13.842 10.1022 14 10.5 14H13.5C13.8978 14 14.2794 13.842 14.5607 13.5607C14.842 13.2794 15 12.8978 15 12.5V11.5C15 11.1022 14.842 10.7206 14.5607 10.4393C14.2794 10.158 13.8978 10 13.5 10H10.5Z" fill="#2B3854"/>
</svg>
