<svg width="40" height="40" viewBox="0 0 40 40" fill="none" xmlns="http://www.w3.org/2000/svg">
<g clip-path="url(#clip0_515_1292)">
<path d="M33.3333 0H6.66667C2.98477 0 0 2.98477 0 6.66667V33.3333C0 37.0152 2.98477 40 6.66667 40H33.3333C37.0152 40 40 37.0152 40 33.3333V6.66667C40 2.98477 37.0152 0 33.3333 0Z" fill="#CEFFCD"/>
<path d="M8.33301 14.2319V25.8852C8.33301 26.5623 8.71292 27.2018 9.34862 27.4388C12.6212 28.6613 15.8938 27.8262 19.1663 26.9912C22.168 26.2275 25.1698 25.4602 28.1678 26.2802C29.033 26.5172 29.9997 25.9228 29.9997 25.0238V13.3667C29.9997 12.6896 29.6197 12.0502 28.984 11.8132C25.7115 10.5982 22.4388 11.4333 19.1663 12.2683C16.1646 13.0319 13.1629 13.7955 10.1649 12.9755C9.29597 12.7385 8.33301 13.3329 8.33301 14.2319ZM19.1663 23.2408C17.5037 23.2408 16.1571 21.6233 16.1571 19.6297C16.1571 17.6362 17.5037 16.0186 19.1663 16.0186C20.829 16.0186 22.1757 17.6362 22.1757 19.6297C22.1757 21.6233 20.829 23.2408 19.1663 23.2408ZM10.7404 23.2408C12.0683 23.2408 13.1478 24.3203 13.1478 25.6482H10.7404V23.2408ZM13.1478 15.4168C13.1478 16.7447 12.0683 17.8242 10.7404 17.8242V15.4168H13.1478ZM27.5923 21.4353V23.8427H25.1848C25.1848 22.5148 26.2645 21.4353 27.5923 21.4353ZM25.1848 13.6112H27.5923V16.0186C26.2645 16.0186 25.1848 14.9391 25.1848 13.6112Z" fill="#66BB6A"/>
</g>
<defs>
<clipPath id="clip0_515_1292">
<rect width="40" height="40" fill="white"/>
</clipPath>
</defs>
</svg>
