<svg width="36" height="36" viewBox="0 0 36 36" fill="none" xmlns="http://www.w3.org/2000/svg">
<rect width="36" height="36" rx="18" fill="#F8F8F8"/>
<g clip-path="url(#clip0_485_1309)">
<path d="M16.125 11.4375C15.5431 11.4372 14.9755 11.6174 14.5003 11.9532C14.0252 12.289 13.6658 12.7639 13.4719 13.3125H10.5V15.1875H13.4719C13.6656 15.7364 14.0248 16.2118 14.4999 16.548C14.9751 16.8842 15.5429 17.0648 16.125 17.0648C16.7071 17.0648 17.2749 16.8842 17.7501 16.548C18.2252 16.2118 18.5844 15.7364 18.7781 15.1875H25.5V13.3125H18.7781C18.5842 12.7639 18.2248 12.289 17.7497 11.9532C17.2745 11.6174 16.7069 11.4372 16.125 11.4375ZM15.1875 14.25C15.1875 14.0014 15.2863 13.7629 15.4621 13.5871C15.6379 13.4113 15.8764 13.3125 16.125 13.3125C16.3736 13.3125 16.6121 13.4113 16.7879 13.5871C16.9637 13.7629 17.0625 14.0014 17.0625 14.25C17.0625 14.4986 16.9637 14.7371 16.7879 14.9129C16.6121 15.0887 16.3736 15.1875 16.125 15.1875C15.8764 15.1875 15.6379 15.0887 15.4621 14.9129C15.2863 14.7371 15.1875 14.4986 15.1875 14.25ZM19.875 18.9375C19.2931 18.9372 18.7255 19.1174 18.2503 19.4532C17.7752 19.789 17.4158 20.2639 17.2219 20.8125H10.5V22.6875H17.2219C17.4156 23.2364 17.7748 23.7118 18.2499 24.048C18.7251 24.3842 19.2929 24.5648 19.875 24.5648C20.4571 24.5648 21.0249 24.3842 21.5001 24.048C21.9752 23.7118 22.3344 23.2364 22.5281 22.6875H25.5V20.8125H22.5281C22.3342 20.2639 21.9748 19.789 21.4997 19.4532C21.0245 19.1174 20.4569 18.9372 19.875 18.9375ZM18.9375 21.75C18.9375 21.5014 19.0363 21.2629 19.2121 21.0871C19.3879 20.9113 19.6264 20.8125 19.875 20.8125C20.1236 20.8125 20.3621 20.9113 20.5379 21.0871C20.7137 21.2629 20.8125 21.5014 20.8125 21.75C20.8125 21.9986 20.7137 22.2371 20.5379 22.4129C20.3621 22.5887 20.1236 22.6875 19.875 22.6875C19.6264 22.6875 19.3879 22.5887 19.2121 22.4129C19.0363 22.2371 18.9375 21.9986 18.9375 21.75Z" fill="#8D8F9A"/>
</g>
<defs>
<clipPath id="clip0_485_1309">
<rect width="15" height="15" fill="white" transform="translate(10.5 10.5)"/>
</clipPath>
</defs>
</svg>
