<svg width="18" height="18" viewBox="0 0 18 18" fill="none" xmlns="http://www.w3.org/2000/svg">
<g clip-path="url(#clip0_78_2021)">
<path d="M6 15.75C4.275 15.75 2.772 15.1782 1.491 14.0347C0.21 12.8912 -0.5245 11.463 -0.7125 9.75H0.825C1 11.05 1.57825 12.125 2.55975 12.975C3.54125 13.825 4.688 14.25 6 14.25C7.4625 14.25 8.70325 13.7407 9.72225 12.7222C10.7412 11.7037 11.2505 10.463 11.25 9C11.2495 7.537 10.7402 6.2965 9.72225 5.2785C8.70425 4.2605 7.4635 3.751 6 3.75C5.1375 3.75 4.33125 3.95 3.58125 4.35C2.83125 4.75 2.2 5.3 1.6875 6H3.75V7.5H-0.75V3H0.75V4.7625C1.3875 3.9625 2.16575 3.34375 3.08475 2.90625C4.00375 2.46875 4.9755 2.25 6 2.25C6.9375 2.25 7.81575 2.42825 8.63475 2.78475C9.45375 3.14125 10.1663 3.62225 10.7723 4.22775C11.3783 4.83325 11.8595 5.54575 12.216 6.36525C12.5725 7.18475 12.7505 8.063 12.75 9C12.7495 9.937 12.5715 10.8152 12.216 11.6347C11.8605 12.4542 11.3793 13.1668 10.7723 13.7723C10.1653 14.3778 9.45275 14.859 8.63475 15.216C7.81675 15.573 6.9385 15.751 6 15.75ZM8.1 12.15L5.25 9.3V5.25H6.75V8.7L9.15 11.1L8.1 12.15Z" fill="#2B3854"/>
</g>
<defs>
<clipPath id="clip0_78_2021">
<rect width="18" height="18" fill="white"/>
</clipPath>
</defs>
</svg>
