<svg width="156" height="156" viewBox="0 0 156 156" fill="none" xmlns="http://www.w3.org/2000/svg">
<path d="M81.3242 152.478C29.9119 152.478 16.1754 98.8839 22.3846 63.769C22.6548 62.2406 24.6582 61.8004 25.5311 63.0837C28.2343 67.0568 30.6398 72.7956 34.6254 72.2975C40.6159 71.5485 44.766 18.6889 80.2697 3.8156C81.3965 3.34364 82.5753 4.23911 82.4516 5.45421C80.696 22.6791 91.038 47.339 109.36 47.339C119.864 47.339 127.05 38.9564 130.641 30.5379C131.732 27.9807 135.468 28.303 136.094 31.012C142.502 58.7635 159.631 152.478 81.3242 152.478Z" fill="#FF8F1F"/>
<path d="M63.3007 100.799C64.5097 99.783 66.3452 100.48 66.6197 102.035C67.262 105.674 69.3741 111.928 76.302 111.928C84.6358 111.928 90.2915 88.9959 91.7747 82.2516C92.0187 81.1419 93.1001 80.3885 94.2134 80.6148C115.04 84.8494 125.167 152.478 79.3742 152.478C46.0377 152.478 53.59 108.957 63.3007 100.799ZM120.211 27.5602C120.945 21.8193 110.465 37.5214 110.465 37.5214C110.465 37.5214 118.454 41.2952 120.211 27.5602ZM14.6138 113.178C14.8347 110.734 11.6906 104.191 11.134 106.781C9.80155 112.98 14.3929 115.622 14.6138 113.178Z" fill="#FFB636"/>
</svg>
