<svg width="16" height="16" viewBox="0 0 16 16" fill="none" xmlns="http://www.w3.org/2000/svg">
<path d="M8 0.833344C7.83455 0.833296 7.67098 0.868439 7.52015 0.936441C7.36932 1.00444 7.23468 1.10375 7.12516 1.22777C7.01565 1.35178 6.93376 1.49767 6.88494 1.65576C6.83612 1.81384 6.82148 1.9805 6.842 2.14468C5.83808 2.40184 4.94832 2.98585 4.31302 3.80462C3.67773 4.6234 3.33305 5.63034 3.33333 6.66668V11.3333H2.66667C2.48986 11.3333 2.32029 11.4036 2.19526 11.5286C2.07024 11.6536 2 11.8232 2 12C2 12.1768 2.07024 12.3464 2.19526 12.4714C2.32029 12.5964 2.48986 12.6667 2.66667 12.6667H13.3333C13.5101 12.6667 13.6797 12.5964 13.8047 12.4714C13.9298 12.3464 14 12.1768 14 12C14 11.8232 13.9298 11.6536 13.8047 11.5286C13.6797 11.4036 13.5101 11.3333 13.3333 11.3333H12.6667V6.66668C12.667 5.63034 12.3223 4.6234 11.687 3.80462C11.0517 2.98585 10.1619 2.40184 9.158 2.14468C9.16333 2.09757 9.16622 2.04934 9.16667 2.00001C9.16667 1.69059 9.04375 1.39384 8.82496 1.17505C8.60617 0.95626 8.30942 0.833344 8 0.833344ZM8 15.3333C7.46957 15.3333 6.96086 15.1226 6.58579 14.7476C6.21071 14.3725 6 13.8638 6 13.3333H10C10 13.8638 9.78929 14.3725 9.41421 14.7476C9.03914 15.1226 8.53043 15.3333 8 15.3333Z" fill="#2B3854"/>
</svg>
