<svg width="35" height="35" viewBox="0 0 35 35" fill="none" xmlns="http://www.w3.org/2000/svg">
<rect width="35" height="35" rx="17.5" fill="#E5F7FF"/>
<path d="M24.6847 20.8296C24.6199 20.7516 24.5563 20.6735 24.4938 20.5982C23.6352 19.5596 23.1157 18.9328 23.1157 15.9927C23.1157 14.4705 22.7515 13.2216 22.0338 12.2849C21.5045 11.5929 20.7891 11.0679 19.8462 10.68C19.834 10.6732 19.8232 10.6644 19.8142 10.6538C19.475 9.51807 18.5469 8.75739 17.5001 8.75739C16.4533 8.75739 15.5256 9.51807 15.1864 10.6527C15.1774 10.6628 15.1667 10.6714 15.1548 10.678C12.9543 11.5839 11.8849 13.3219 11.8849 15.9915C11.8849 18.9328 11.3662 19.5596 10.5068 20.597C10.4443 20.6723 10.3807 20.7488 10.3159 20.8285C10.1486 21.0303 10.0425 21.2758 10.0104 21.536C9.9782 21.7963 10.0213 22.0602 10.1344 22.2967C10.3752 22.8041 10.8885 23.1191 11.4743 23.1191H23.5302C24.1133 23.1191 24.623 22.8045 24.8646 22.2995C24.9783 22.0629 25.0217 21.7987 24.9898 21.5382C24.9579 21.2777 24.852 21.0318 24.6847 20.8296ZM17.5001 26.2426C18.0641 26.2422 18.6174 26.0891 19.1015 25.7996C19.5855 25.5101 19.9821 25.095 20.2493 24.5983C20.2619 24.5745 20.2681 24.5479 20.2674 24.5209C20.2666 24.494 20.2589 24.4678 20.245 24.4447C20.2311 24.4217 20.2115 24.4026 20.188 24.3894C20.1646 24.3761 20.1381 24.3692 20.1112 24.3692H14.8898C14.8628 24.3691 14.8363 24.376 14.8128 24.3892C14.7893 24.4024 14.7696 24.4215 14.7557 24.4445C14.7417 24.4676 14.734 24.4939 14.7332 24.5209C14.7324 24.5478 14.7386 24.5745 14.7512 24.5983C15.0184 25.0949 15.415 25.51 15.8989 25.7995C16.3829 26.089 16.9362 26.2421 17.5001 26.2426Z" fill="#5FA7C6"/>
</svg>
