<svg width="16" height="16" viewBox="0 0 16 16" fill="none" xmlns="http://www.w3.org/2000/svg">
<path d="M8.00033 11.3333C8.18921 11.3333 8.34766 11.2693 8.47566 11.1413C8.60366 11.0133 8.66744 10.8551 8.66699 10.6667V8C8.66699 7.81111 8.60299 7.65289 8.47499 7.52533C8.34699 7.39778 8.18877 7.33378 8.00033 7.33333C7.81188 7.33289 7.65366 7.39689 7.52566 7.52533C7.39766 7.65378 7.33366 7.812 7.33366 8V10.6667C7.33366 10.8556 7.39766 11.014 7.52566 11.142C7.65366 11.27 7.81188 11.3338 8.00033 11.3333ZM8.00033 6C8.18921 6 8.34766 5.936 8.47566 5.808C8.60366 5.68 8.66744 5.52178 8.66699 5.33333C8.66655 5.14489 8.60255 4.98667 8.47499 4.85867C8.34744 4.73067 8.18921 4.66667 8.00033 4.66667C7.81144 4.66667 7.65321 4.73067 7.52566 4.85867C7.3981 4.98667 7.3341 5.14489 7.33366 5.33333C7.33321 5.52178 7.39721 5.68022 7.52566 5.80867C7.6541 5.93711 7.81233 6.00089 8.00033 6ZM8.00033 14.6C7.92255 14.6 7.85033 14.5944 7.78366 14.5833C7.71699 14.5722 7.65033 14.5556 7.58366 14.5333C6.08366 14.0333 4.88921 13.1082 4.00033 11.758C3.11144 10.4078 2.66699 8.95511 2.66699 7.4V4.25C2.66699 3.97222 2.74766 3.72222 2.90899 3.5C3.07033 3.27778 3.27855 3.11667 3.53366 3.01667L7.53366 1.51667C7.68921 1.46111 7.84477 1.43333 8.00033 1.43333C8.15588 1.43333 8.31144 1.46111 8.46699 1.51667L12.467 3.01667C12.7225 3.11667 12.931 3.27778 13.0923 3.5C13.2537 3.72222 13.3341 3.97222 13.3337 4.25V7.4C13.3337 8.95556 12.8892 10.4084 12.0003 11.7587C11.1114 13.1089 9.91699 14.0338 8.41699 14.5333C8.35033 14.5556 8.28366 14.5722 8.21699 14.5833C8.15033 14.5944 8.0781 14.6 8.00033 14.6Z" fill="#2B3854"/>
</svg>
