<svg width="144" height="144" viewBox="0 0 144 144" fill="none" xmlns="http://www.w3.org/2000/svg">
<rect width="144" height="144" rx="72" fill="#EEEEEE"/>
<path fill-rule="evenodd" clip-rule="evenodd" d="M53.3333 48.6667C53.3333 43.716 55.3 38.968 58.8007 35.4673C62.3014 31.9667 67.0493 30 72 30C76.9507 30 81.6986 31.9667 85.1993 35.4673C88.7 38.968 90.6667 43.716 90.6667 48.6667C90.6667 53.6174 88.7 58.3653 85.1993 61.866C81.6986 65.3667 76.9507 67.3333 72 67.3333C67.0493 67.3333 62.3014 65.3667 58.8007 61.866C55.3 58.3653 53.3333 53.6174 53.3333 48.6667ZM53.3333 76.6667C47.1449 76.6667 41.21 79.125 36.8342 83.5008C32.4583 87.8767 30 93.8116 30 100C30 103.713 31.475 107.274 34.1005 109.899C36.726 112.525 40.287 114 44 114H100C103.713 114 107.274 112.525 109.899 109.899C112.525 107.274 114 103.713 114 100C114 93.8116 111.542 87.8767 107.166 83.5008C102.79 79.125 96.8551 76.6667 90.6667 76.6667H53.3333Z" fill="#C9C9C9"/>
<rect x="103" y="110" width="34" height="34" rx="17" fill="#C9C9C9"/>
<path d="M126 128H121V133C121 133.265 120.895 133.52 120.707 133.707C120.52 133.895 120.265 134 120 134C119.735 134 119.48 133.895 119.293 133.707C119.105 133.52 119 133.265 119 133V128H114C113.735 128 113.48 127.895 113.293 127.707C113.105 127.52 113 127.265 113 127C113 126.735 113.105 126.48 113.293 126.293C113.48 126.105 113.735 126 114 126H119V121C119 120.735 119.105 120.48 119.293 120.293C119.48 120.105 119.735 120 120 120C120.265 120 120.52 120.105 120.707 120.293C120.895 120.48 121 120.735 121 121V126H126C126.265 126 126.52 126.105 126.707 126.293C126.895 126.48 127 126.735 127 127C127 127.265 126.895 127.52 126.707 127.707C126.52 127.895 126.265 128 126 128Z" fill="#818181"/>
</svg>
