<svg width="16" height="16" viewBox="0 0 16 16" fill="none" xmlns="http://www.w3.org/2000/svg">
<path d="M7.21665 14.6667C6.91665 14.6667 6.65843 14.5667 6.44199 14.3667C6.22554 14.1667 6.09488 13.9222 6.04999 13.6333L5.89999 12.5333C5.75554 12.4778 5.61954 12.4111 5.49199 12.3333C5.36443 12.2556 5.23932 12.1722 5.11665 12.0833L4.08332 12.5167C3.80554 12.6389 3.52776 12.65 3.24999 12.55C2.97221 12.45 2.75554 12.2722 2.59999 12.0167L1.81665 10.65C1.6611 10.3945 1.61665 10.1222 1.68332 9.83334C1.74999 9.54445 1.89999 9.30557 2.13332 9.11668L3.01665 8.45001C3.00554 8.37223 2.99999 8.29712 2.99999 8.22468V7.77468C2.99999 7.70268 3.00554 7.62779 3.01665 7.55001L2.13332 6.88334C1.89999 6.69445 1.74999 6.45557 1.68332 6.16668C1.61665 5.87779 1.6611 5.60557 1.81665 5.35001L2.59999 3.98334C2.75554 3.72779 2.97221 3.55001 3.24999 3.45001C3.52776 3.35001 3.80554 3.36112 4.08332 3.48334L5.11665 3.91668C5.23888 3.82779 5.36665 3.74445 5.49999 3.66668C5.63332 3.5889 5.76665 3.52223 5.89999 3.46668L6.04999 2.36668C6.09443 2.07779 6.2251 1.83334 6.44199 1.63334C6.65888 1.43334 6.9171 1.33334 7.21665 1.33334H8.78332C9.08332 1.33334 9.34176 1.43334 9.55865 1.63334C9.77554 1.83334 9.90599 2.07779 9.94999 2.36668L10.1 3.46668C10.2444 3.52223 10.3807 3.5889 10.5087 3.66668C10.6367 3.74445 10.7615 3.82779 10.8833 3.91668L11.9167 3.48334C12.1944 3.36112 12.4722 3.35001 12.75 3.45001C13.0278 3.55001 13.2444 3.72779 13.4 3.98334L14.1833 5.35001C14.3389 5.60557 14.3833 5.87779 14.3167 6.16668C14.25 6.45557 14.1 6.69445 13.8667 6.88334L12.9833 7.55001C12.9944 7.62779 13 7.7029 13 7.77534V8.22468C13 8.29712 12.9889 8.37223 12.9667 8.45001L13.85 9.11668C14.0833 9.30557 14.2333 9.54445 14.3 9.83334C14.3667 10.1222 14.3222 10.3945 14.1667 10.65L13.3667 12.0167C13.2111 12.2722 12.9944 12.45 12.7167 12.55C12.4389 12.65 12.1611 12.6389 11.8833 12.5167L10.8833 12.0833C10.7611 12.1722 10.6333 12.2556 10.5 12.3333C10.3667 12.4111 10.2333 12.4778 10.1 12.5333L9.94999 13.6333C9.90554 13.9222 9.7751 14.1667 9.55865 14.3667C9.34221 14.5667 9.08376 14.6667 8.78332 14.6667H7.21665ZM8.03332 10.3333C8.67776 10.3333 9.22776 10.1056 9.68332 9.65001C10.1389 9.19445 10.3667 8.64445 10.3667 8.00001C10.3667 7.35557 10.1389 6.80557 9.68332 6.35001C9.22776 5.89445 8.67776 5.66668 8.03332 5.66668C7.37776 5.66668 6.82488 5.89445 6.37465 6.35001C5.92443 6.80557 5.69954 7.35557 5.69999 8.00001C5.70043 8.64445 5.92554 9.19445 6.37532 9.65001C6.8251 10.1056 7.37776 10.3333 8.03332 10.3333Z" fill="#2B3854"/>
</svg>
