<svg width="16" height="16" viewBox="0 0 16 16" fill="none" xmlns="http://www.w3.org/2000/svg">
<path d="M1 4.25C1 3.56 1.56 3 2.25 3H11.75C12.44 3 13 3.56 13 4.25V9.75C13 10.44 12.44 11 11.75 11H2.25C1.56 11 1 10.44 1 9.75V4.25ZM4 4.5V4H3V4.5C3 4.63261 2.94732 4.75979 2.85355 4.85355C2.75979 4.94732 2.63261 5 2.5 5H2V6H2.5C2.89782 6 3.27936 5.84196 3.56066 5.56066C3.84196 5.27936 4 4.89782 4 4.5ZM9 7C9 6.46957 8.78929 5.96086 8.41421 5.58579C8.03914 5.21071 7.53043 5 7 5C6.46957 5 5.96086 5.21071 5.58579 5.58579C5.21071 5.96086 5 6.46957 5 7C5 7.53043 5.21071 8.03914 5.58579 8.41421C5.96086 8.78929 6.46957 9 7 9C7.53043 9 8.03914 8.78929 8.41421 8.41421C8.78929 8.03914 9 7.53043 9 7ZM11 4H10V4.5C10 4.89782 10.158 5.27936 10.4393 5.56066C10.7206 5.84196 11.1022 6 11.5 6H12V5H11.5C11.3674 5 11.2402 4.94732 11.1464 4.85355C11.0527 4.75979 11 4.63261 11 4.5V4ZM4 9.5C4 9.10218 3.84196 8.72064 3.56066 8.43934C3.27936 8.15804 2.89782 8 2.5 8H2V9H2.5C2.63261 9 2.75979 9.05268 2.85355 9.14645C2.94732 9.24021 3 9.36739 3 9.5V10H4V9.5ZM11 10V9.5C11 9.36739 11.0527 9.24021 11.1464 9.14645C11.2402 9.05268 11.3674 9 11.5 9H12V8H11.5C11.1022 8 10.7206 8.15804 10.4393 8.43934C10.158 8.72064 10 9.10218 10 9.5V10H11ZM4.5 13C4.18322 13.0001 3.87453 12.8999 3.61818 12.7138C3.36184 12.5277 3.17099 12.2652 3.073 11.964C3.21167 11.988 3.354 12 3.5 12H11.75C12.3467 12 12.919 11.7629 13.341 11.341C13.7629 10.919 14 10.3467 14 9.75V5.085C14.2926 5.18844 14.5459 5.38008 14.725 5.63351C14.9041 5.88694 15.0002 6.18967 15 6.5V9.75C15 10.1768 14.9159 10.5994 14.7526 10.9937C14.5893 11.388 14.3499 11.7463 14.0481 12.0481C13.7463 12.3499 13.388 12.5893 12.9937 12.7526C12.5994 12.9159 12.1768 13 11.75 13H4.5Z" fill="#2B3854"/>
</svg>
