<svg width="35" height="35" viewBox="0 0 35 35" fill="none" xmlns="http://www.w3.org/2000/svg">
<rect width="35" height="35" rx="17.5" fill="#E5F7FF"/>
<path d="M25.1524 24.905C25.7044 24.79 26.0344 24.212 25.7594 23.718C25.1534 22.631 24.1994 21.675 22.9794 20.947C21.4074 20.009 19.4804 19.5 17.5004 19.5C15.5204 19.5 13.5934 20.008 12.0214 20.947C10.8014 21.675 9.84739 22.631 9.24139 23.718C8.96639 24.212 9.29639 24.79 9.84839 24.905C14.8952 25.9569 20.1046 25.9569 25.1514 24.905" fill="#5FA7C6"/>
<path d="M17.5 18.5C20.2614 18.5 22.5 16.2614 22.5 13.5C22.5 10.7386 20.2614 8.5 17.5 8.5C14.7386 8.5 12.5 10.7386 12.5 13.5C12.5 16.2614 14.7386 18.5 17.5 18.5Z" fill="#5FA7C6"/>
</svg>
