<svg width="63" height="62" viewBox="0 0 63 62" fill="none" xmlns="http://www.w3.org/2000/svg">
<g clip-path="url(#clip0_1008_1748)">
<path d="M52.4953 0H11.1619C5.455 0 0.828613 4.62639 0.828613 10.3333V51.6667C0.828613 57.3736 5.455 62 11.1619 62H52.4953C58.2022 62 62.8286 57.3736 62.8286 51.6667V10.3333C62.8286 4.62639 58.2022 0 52.4953 0Z" fill="#CEFFCD"/>
<path d="M13.7451 22.0595V40.1221C13.7451 41.1717 14.334 42.1629 15.3193 42.5303C20.3918 44.4251 25.4643 43.1306 30.5368 41.8364C35.1894 40.6527 39.8422 39.4633 44.4891 40.7343C45.8301 41.1017 47.3284 40.1805 47.3284 38.787V20.7184C47.3284 19.669 46.7395 18.6778 45.7542 18.3105C40.6818 16.4272 35.6092 17.7216 30.5368 19.016C25.8841 20.1996 21.2314 21.3831 16.5845 20.1121C15.2377 19.7448 13.7451 20.666 13.7451 22.0595ZM30.5368 36.0234C27.9597 36.0234 25.8724 33.5162 25.8724 30.426C25.8724 27.3361 27.9597 24.8289 30.5368 24.8289C33.1139 24.8289 35.2013 27.3361 35.2013 30.426C35.2013 33.5162 33.1139 36.0234 30.5368 36.0234ZM17.4766 36.0234C19.5348 36.0234 21.2081 37.6966 21.2081 39.7547H17.4766V36.0234ZM21.2081 23.8961C21.2081 25.9543 19.5348 27.6275 17.4766 27.6275V23.8961H21.2081ZM43.5971 33.2248V36.9562H39.8655C39.8655 34.8981 41.5389 33.2248 43.5971 33.2248ZM39.8655 21.0975H43.5971V24.8289C41.5389 24.8289 39.8655 23.1556 39.8655 21.0975Z" fill="#66BB6A"/>
</g>
<defs>
<clipPath id="clip0_1008_1748">
<rect width="62" height="62" fill="white" transform="translate(0.828613)"/>
</clipPath>
</defs>
</svg>
