<svg width="63" height="62" viewBox="0 0 63 62" fill="none" xmlns="http://www.w3.org/2000/svg">
<g clip-path="url(#clip0_1008_1772)">
<mask id="mask0_1008_1772" style="mask-type:luminance" maskUnits="userSpaceOnUse" x="0" y="0" width="63" height="62">
<path d="M51.7712 0H10.4378C4.73088 0 0.104492 4.62639 0.104492 10.3333V51.6667C0.104492 57.3736 4.73088 62 10.4378 62H51.7712C57.4781 62 62.1045 57.3736 62.1045 51.6667V10.3333C62.1045 4.62639 57.4781 0 51.7712 0Z" fill="white"/>
</mask>
<g mask="url(#mask0_1008_1772)">
<path d="M51.7712 0H10.4378C4.73088 0 0.104492 4.62639 0.104492 10.3333V51.6667C0.104492 57.3736 4.73088 62 10.4378 62H51.7712C57.4781 62 62.1045 57.3736 62.1045 51.6667V10.3333C62.1045 4.62639 57.4781 0 51.7712 0Z" fill="#FF4E4E"/>
<mask id="mask1_1008_1772" style="mask-type:luminance" maskUnits="userSpaceOnUse" x="17" y="14" width="28" height="34">
<path d="M39.7394 44.1652L44.0213 24.8967H18.188L22.4699 44.1652C22.7395 45.377 22.8735 45.9833 23.3167 46.3385C23.7599 46.6937 24.3799 46.6937 25.6223 46.6937H36.5862C37.8286 46.6937 38.4493 46.6937 38.8919 46.3385C39.3349 45.9833 39.469 45.3778 39.7394 44.1652Z" fill="white" stroke="white" stroke-linecap="round" stroke-linejoin="round"/>
<path d="M34.334 46.6937L35.1413 24.8967M27.8757 46.6937L27.0684 24.8967" stroke="black" stroke-linecap="round" stroke-linejoin="round"/>
<path d="M37.5628 46.6938H24.6461M37.5628 24.8969H24.6461M21.4169 24.8969C21.4169 24.8969 20.6096 22.475 21.8206 21.2641C23.0315 20.0531 25.4534 20.4568 25.4534 20.4568C25.4534 20.4568 25.4534 18.0349 27.068 17.2276C28.6826 16.4203 31.1044 17.6313 31.1044 17.6313C31.1044 17.6313 32.719 14.9212 35.1409 15.613C37.5628 16.3049 37.5628 19.2459 37.5628 19.2459C37.5628 19.2459 39.5809 19.2459 40.7919 20.8604C42.0028 22.475 40.7919 24.8969 40.7919 24.8969" stroke="white" stroke-linecap="round" stroke-linejoin="round"/>
</mask>
<g mask="url(#mask1_1008_1772)">
<path d="M12.5371 11.1727H51.2871V49.9229H12.5371V11.1727Z" fill="white"/>
</g>
</g>
</g>
<defs>
<clipPath id="clip0_1008_1772">
<rect width="62" height="62" fill="white" transform="translate(0.104492)"/>
</clipPath>
</defs>
</svg>
