<svg width="63" height="62" viewBox="0 0 63 62" fill="none" xmlns="http://www.w3.org/2000/svg">
<g clip-path="url(#clip0_1008_1721)">
<path d="M51.943 0H10.6097C4.90276 0 0.276367 4.62639 0.276367 10.3333V51.6667C0.276367 57.3736 4.90276 62 10.6097 62H51.943C57.65 62 62.2764 57.3736 62.2764 51.6667V10.3333C62.2764 4.62639 57.65 0 51.943 0Z" fill="#FFE8CD"/>
<path d="M26.6856 13.0561C26.8566 13.1409 27.0067 13.2624 27.125 13.4121C27.2434 13.5617 27.3271 13.7357 27.3702 13.9215C27.4167 14.1256 28.6929 19.5868 28.6929 23.25C28.6929 25.7041 27.551 27.8922 25.7737 29.3105C25.1279 29.8271 24.8179 30.3903 24.8179 30.8605V32.116C24.8179 32.1762 24.8213 32.233 24.8282 32.2865C24.916 32.9271 25.2338 35.3064 25.5309 37.7735C25.8228 40.194 26.1095 42.8342 26.1095 43.9166C26.1095 45.2868 25.5652 46.601 24.5962 47.57C23.6273 48.539 22.3131 49.0833 20.9429 49.0833C19.5726 49.0833 18.2584 48.539 17.2895 47.57C16.3205 46.601 15.7762 45.2868 15.7762 43.9166C15.7762 42.8316 16.063 40.1966 16.3549 37.7735C16.652 35.3064 16.9697 32.9271 17.0575 32.2865L17.0679 32.116V30.8605C17.0679 30.3903 16.7579 29.8271 16.112 29.3105C15.2014 28.5845 14.466 27.6628 13.9606 26.6135C13.4552 25.5642 13.1928 24.4146 13.1929 23.25C13.1929 19.5997 14.4587 14.167 14.5155 13.9241C14.5827 13.637 14.7452 13.381 14.9765 13.1981C15.2077 13.0151 15.4942 12.9159 15.7891 12.9166C16.5125 12.9166 17.0989 13.503 17.0989 14.2264V21.9712C17.0887 22.1457 17.1144 22.3203 17.1743 22.4845C17.2343 22.6486 17.3272 22.7988 17.4475 22.9256C17.5677 23.0524 17.7127 23.1532 17.8734 23.2218C18.0341 23.2904 18.2072 23.3254 18.3819 23.3245C18.5567 23.3236 18.7294 23.2869 18.8894 23.2167C19.0494 23.1464 19.1933 23.0442 19.3123 22.9161C19.4312 22.7881 19.5227 22.6371 19.5809 22.4723C19.6392 22.3076 19.6632 22.1326 19.6512 21.9583V14.2083C19.6512 13.8657 19.7873 13.5372 20.0295 13.295C20.2717 13.0527 20.6003 12.9166 20.9429 12.9166C21.2854 12.9166 21.614 13.0527 21.8562 13.295C22.0984 13.5372 22.2345 13.8657 22.2345 14.2083V22.0255C22.2417 22.3646 22.3834 22.687 22.6283 22.9217C22.8732 23.1565 23.2013 23.2843 23.5404 23.2771C23.8796 23.2699 24.202 23.1283 24.4367 22.8834C24.6714 22.6385 24.7992 22.3104 24.792 21.9712V14.2212C24.792 13.5005 25.3759 12.9166 26.0992 12.9166C26.156 12.9166 26.4092 12.9166 26.6856 13.0561ZM32.5679 24.5416C32.5679 21.4585 33.7926 18.5016 35.9727 16.3215C38.1528 14.1414 41.1097 12.9166 44.1929 12.9166C44.5354 12.9166 44.864 13.0527 45.1063 13.295C45.3484 13.5372 45.4845 13.8657 45.4845 14.2083V29.6385L45.5336 30.0958C45.739 32.0237 45.9364 33.9527 46.1252 35.8825C46.443 39.1271 46.7762 42.7645 46.7762 43.9166C46.7762 45.2868 46.2319 46.601 45.2629 47.57C44.2939 48.539 42.9797 49.0833 41.6095 49.0833C40.2393 49.0833 38.9252 48.539 37.9562 47.57C36.9872 46.601 36.4429 45.2868 36.4429 43.9166C36.4429 42.7645 36.7761 39.1271 37.0939 35.8825C37.2566 34.2369 37.4194 32.661 37.5408 31.4934L37.5925 31H35.1512C34.4661 31 33.8089 30.7277 33.3245 30.2433C32.8402 29.7589 32.5679 29.1017 32.5679 28.4166V24.5416Z" fill="#F6921E"/>
</g>
<defs>
<clipPath id="clip0_1008_1721">
<rect width="62" height="62" fill="white" transform="translate(0.276367)"/>
</clipPath>
</defs>
</svg>
