<svg width="63" height="62" viewBox="0 0 63 62" fill="none" xmlns="http://www.w3.org/2000/svg">
<g clip-path="url(#clip0_1008_1727)">
<path d="M51.7189 0H10.3856C4.67864 0 0.0522461 4.62639 0.0522461 10.3333V51.6667C0.0522461 57.3736 4.67864 62 10.3856 62H51.7189C57.4259 62 62.0522 57.3736 62.0522 51.6667V10.3333C62.0522 4.62639 57.4259 0 51.7189 0Z" fill="#CDD8FF"/>
<path d="M23.0434 42.3656C21.1964 42.3656 19.702 43.8769 19.702 45.724C19.702 47.571 21.1964 49.0823 23.0434 49.0823C24.8904 49.0823 26.4016 47.571 26.4016 45.724C26.4016 43.8769 24.8904 42.3656 23.0434 42.3656ZM12.9688 15.5V18.8582H16.327L22.3717 31.6027L20.105 35.7164C19.8363 36.1866 19.6852 36.7407 19.6852 37.3284C19.6852 39.1755 21.1964 40.6867 23.0434 40.6867H43.1927V37.3284H23.7486C23.5136 37.3284 23.3288 37.1437 23.3288 36.9086L23.3792 36.7071L24.8904 33.9703H37.3998C38.6592 33.9703 39.7672 33.2819 40.3381 32.2408L46.3495 21.3433C46.488 21.0871 46.5578 20.7992 46.5518 20.508C46.5459 20.2168 46.4645 19.932 46.3154 19.6816C46.1666 19.4312 45.9553 19.2237 45.7024 19.0794C45.4493 18.9351 45.163 18.8589 44.8719 18.8582H20.0378L18.4594 15.5H12.9688ZM39.8344 42.3656C37.9876 42.3656 36.4931 43.8769 36.4931 45.724C36.4931 47.571 37.9876 49.0823 39.8344 49.0823C41.6815 49.0823 43.1927 47.571 43.1927 45.724C43.1927 43.8769 41.6815 42.3656 39.8344 42.3656Z" fill="#9381C7"/>
</g>
<defs>
<clipPath id="clip0_1008_1727">
<rect width="62" height="62" fill="white" transform="translate(0.0522461)"/>
</clipPath>
</defs>
</svg>
