<svg width="63" height="62" viewBox="0 0 63 62" fill="none" xmlns="http://www.w3.org/2000/svg">
<g clip-path="url(#clip0_1008_1761)">
<mask id="mask0_1008_1761" style="mask-type:luminance" maskUnits="userSpaceOnUse" x="0" y="0" width="63" height="62">
<path d="M51.7712 0H10.4378C4.73088 0 0.104492 4.62639 0.104492 10.3333V51.6667C0.104492 57.3736 4.73088 62 10.4378 62H51.7712C57.4781 62 62.1045 57.3736 62.1045 51.6667V10.3333C62.1045 4.62639 57.4781 0 51.7712 0Z" fill="white"/>
</mask>
<g mask="url(#mask0_1008_1761)">
<path d="M51.7712 0H10.4378C4.73088 0 0.104492 4.62639 0.104492 10.3333V51.6667C0.104492 57.3736 4.73088 62 10.4378 62H51.7712C57.4781 62 62.1045 57.3736 62.1045 51.6667V10.3333C62.1045 4.62639 57.4781 0 51.7712 0Z" fill="#FFECAA"/>
<path fill-rule="evenodd" clip-rule="evenodd" d="M43.3918 26.2529C43.2975 26.2485 43.2032 26.247 43.1092 26.248H39.1776C35.9614 26.248 33.207 28.8008 33.207 32.13C33.207 35.4594 35.9614 38.012 39.1792 38.012H43.1077C43.2066 38.013 43.3006 38.0109 43.39 38.0055C44.0537 37.9624 44.6791 37.6798 45.15 37.2104C45.6212 36.741 45.9057 36.1163 45.9509 35.4529C45.9573 35.3576 45.9573 35.2558 45.9573 35.1623V29.0979C45.9573 29.0041 45.9573 28.9024 45.9509 28.8073C45.9057 28.1439 45.6215 27.5195 45.1508 27.0501C44.6801 26.5807 44.055 26.2966 43.3918 26.2529ZM38.8338 33.6994C39.662 33.6994 40.3352 32.9988 40.3352 32.1315C40.3352 31.2646 39.662 30.564 38.8338 30.564C38.0056 30.564 37.3339 31.2646 37.3339 32.1315C37.3339 32.9988 38.0038 33.6994 38.8338 33.6994Z" fill="#EEC43D"/>
<path fill-rule="evenodd" clip-rule="evenodd" d="M43.1072 40.3646C43.1614 40.3628 43.2152 40.3736 43.2642 40.3961C43.3133 40.4188 43.3565 40.4529 43.3903 40.4953C43.4239 40.5377 43.4469 40.5875 43.458 40.6405C43.4688 40.6934 43.467 40.7482 43.4528 40.8007C43.1395 41.9179 42.644 42.8704 41.8481 43.6713C40.6837 44.8451 39.2063 45.3664 37.382 45.6137C35.6091 45.8542 33.3455 45.8542 30.4845 45.8542H27.1957C24.3362 45.8542 22.0709 45.8542 20.2981 45.6137C18.4736 45.3664 16.9963 44.8451 15.8322 43.6713C14.668 42.5007 14.1514 41.0104 13.906 39.1729C13.667 37.3839 13.667 35.101 13.667 32.2191V32.0413C13.667 29.1594 13.667 26.8747 13.906 25.089C14.1514 23.25 14.668 21.7646 15.8305 20.5875C16.9946 19.4154 18.472 18.8923 20.2965 18.6468C22.0709 18.4063 24.3362 18.4062 27.1957 18.4062H30.4845C33.344 18.4062 35.6091 18.4063 37.382 18.6468C39.2063 18.8939 40.6837 19.4154 41.8481 20.5875C42.644 21.39 43.1395 22.3426 43.4528 23.4615C43.4668 23.5136 43.4683 23.5683 43.4572 23.6211C43.4461 23.6739 43.4229 23.7234 43.3893 23.7656C43.3557 23.8078 43.3128 23.8416 43.2637 23.8642C43.2149 23.8868 43.1612 23.8976 43.1072 23.8958H39.179C34.7648 23.8958 30.8751 27.4107 30.8751 32.1302C30.8751 36.8497 34.7664 40.3646 39.1808 40.3646H43.1072ZM19.5021 24.6805C19.3484 24.6812 19.1963 24.7121 19.0545 24.7715C18.9127 24.8309 18.784 24.9176 18.6758 25.0268C18.5675 25.1359 18.4819 25.2653 18.4236 25.4076C18.3654 25.5499 18.3357 25.7022 18.3364 25.8561C18.3364 26.5065 18.8579 27.033 19.5021 27.033H25.7279C26.3739 27.033 26.8952 26.5065 26.8952 25.8561C26.8962 25.5453 26.7738 25.2471 26.5547 25.0267C26.3359 24.8063 26.0386 24.6818 25.7279 24.6805H19.5021Z" fill="#EEC43D"/>
<path d="M22.9946 16.8303L26.156 14.5005C26.9812 13.8909 27.9799 13.5619 29.0057 13.5619C30.0316 13.5619 31.0303 13.8909 31.8554 14.5005L35.0347 16.8433C33.7043 16.7916 32.2189 16.7916 30.5929 16.7916H27.0891C25.6006 16.7916 24.233 16.7916 22.9946 16.8303Z" fill="#EEC43D"/>
</g>
</g>
<defs>
<clipPath id="clip0_1008_1761">
<rect width="62" height="62" fill="white" transform="translate(0.104492)"/>
</clipPath>
</defs>
</svg>
