<svg width="63" height="62" viewBox="0 0 63 62" fill="none" xmlns="http://www.w3.org/2000/svg">
<mask id="mask0_1008_1753" style="mask-type:luminance" maskUnits="userSpaceOnUse" x="0" y="0" width="63" height="62">
<path d="M52.2712 0H10.9378C5.23088 0 0.604492 4.62639 0.604492 10.3333V51.6667C0.604492 57.3736 5.23088 62 10.9378 62H52.2712C57.9781 62 62.6045 57.3736 62.6045 51.6667V10.3333C62.6045 4.62639 57.9781 0 52.2712 0Z" fill="white"/>
</mask>
<g mask="url(#mask0_1008_1753)">
<path d="M52.2712 0H10.9378C5.23088 0 0.604492 4.62639 0.604492 10.3333V51.6667C0.604492 57.3736 5.23088 62 10.9378 62H52.2712C57.9781 62 62.6045 57.3736 62.6045 51.6667V10.3333C62.6045 4.62639 57.9781 0 52.2712 0Z" fill="#FFCDCD"/>
<path d="M38.6166 42.8094H22.0094V19.5595H38.6166M38.6166 12.9166H22.0094C20.166 12.9166 18.688 14.3947 18.688 16.238V46.1308C18.688 47.0117 19.0379 47.8567 19.6608 48.4796C20.2837 49.1024 21.1285 49.4525 22.0094 49.4525H38.6166C39.4975 49.4525 40.3423 49.1024 40.9651 48.4796C41.5879 47.8567 41.938 47.0117 41.938 46.1308V16.238C41.938 15.3572 41.5879 14.5124 40.9651 13.8895C40.3423 13.2666 39.4975 12.9166 38.6166 12.9166Z" fill="#FE6B6B"/>
</g>
</svg>
