<svg width="63" height="62" viewBox="0 0 63 62" fill="none" xmlns="http://www.w3.org/2000/svg">
<g clip-path="url(#clip0_1008_1733)">
<path d="M52.2189 0H10.8856C5.17864 0 0.552246 4.62639 0.552246 10.3333V51.6667C0.552246 57.3736 5.17864 62 10.8856 62H52.2189C57.9259 62 62.5522 57.3736 62.5522 51.6667V10.3333C62.5522 4.62639 57.9259 0 52.2189 0Z" fill="#CDF0FF"/>
<path d="M47.9564 19.6686C47.9613 19.4234 47.9448 17.2086 45.7735 15.076C43.636 12.9771 41.4797 12.9166 41.2397 12.9166H24.4414C24.04 12.9166 21.9344 13.0224 19.8942 15.1029C17.7919 17.2455 17.7314 19.3965 17.7314 19.6333V24.6708H16.0522V29.7083H17.7314V39.7833C17.7314 41.0158 18.4132 42.0889 19.4106 42.6733V44.8208C19.4106 45.2662 19.5875 45.6932 19.9024 46.0081C20.2173 46.323 20.6444 46.5 21.0897 46.5H22.7689C23.2143 46.5 23.6414 46.323 23.9563 46.0081C24.2712 45.6932 24.4481 45.2662 24.4481 44.8208V43.1416H41.2397V44.8208C41.2397 45.2662 41.4167 45.6932 41.7316 46.0081C42.0465 46.323 42.4735 46.5 42.9189 46.5H44.5981C45.0434 46.5 45.4705 46.323 45.7854 46.0081C46.1003 45.6932 46.2772 45.2662 46.2772 44.8208V42.6764C46.7867 42.3844 47.2101 41.9631 47.5048 41.4552C47.7996 40.9473 47.9554 40.3705 47.9564 39.7833V29.7083H49.6356V24.6708H47.9564V19.6686ZM27.8064 16.275H37.8814V19.6333H27.8064V16.275ZM23.6085 39.7833C22.9403 39.783 22.2995 39.5175 21.8271 39.0447C21.3548 38.572 21.0895 37.931 21.0897 37.263C21.09 36.5947 21.3556 35.9538 21.8283 35.4815C22.301 35.009 22.9419 34.744 23.6102 34.744C24.2784 34.7442 24.9192 35.0101 25.3915 35.4826C25.8639 35.9553 26.1292 36.5962 26.1289 37.2645C26.1287 37.9329 25.863 38.5735 25.3903 39.046C24.9177 39.5182 24.2767 39.7835 23.6085 39.7833ZM31.1647 31.3875H21.0897V22.9916H31.1647V31.3875ZM42.0793 39.7833C41.411 39.783 40.7704 39.5175 40.2979 39.0447C39.8256 38.572 39.5603 37.931 39.5606 37.263C39.5608 36.5947 39.8264 35.9538 40.2992 35.4815C40.7719 35.009 41.4128 34.744 42.0809 34.744C42.7492 34.7442 43.3901 35.0101 43.8623 35.4826C44.3348 35.9553 44.5999 36.5962 44.5996 37.2645C44.5996 37.9329 44.3338 38.5735 43.8613 39.046C43.3886 39.5182 42.7476 39.7835 42.0793 39.7833ZM44.5981 31.3875H34.5231V22.9916H44.5981V31.3875Z" fill="#80B9DA"/>
</g>
<defs>
<clipPath id="clip0_1008_1733">
<rect width="62" height="62" fill="white" transform="translate(0.552246)"/>
</clipPath>
</defs>
</svg>
