<svg width="65" height="62" viewBox="0 0 65 62" fill="none" xmlns="http://www.w3.org/2000/svg">
<g clip-path="url(#clip0_1008_1739)">
<mask id="mask0_1008_1739" style="mask-type:luminance" maskUnits="userSpaceOnUse" x="0" y="0" width="65" height="62">
<path d="M53.8856 0H11.2189C5.32788 0 0.552246 4.62639 0.552246 10.3333V51.6667C0.552246 57.3736 5.32788 62 11.2189 62H53.8856C59.7766 62 64.5522 57.3736 64.5522 51.6667V10.3333C64.5522 4.62639 59.7766 0 53.8856 0Z" fill="white"/>
</mask>
<g mask="url(#mask0_1008_1739)">
<path d="M53.8856 0H11.2189C5.32788 0 0.552246 4.62639 0.552246 10.3333V51.6667C0.552246 57.3736 5.32788 62 11.2189 62H53.8856C59.7766 62 64.5522 57.3736 64.5522 51.6667V10.3333C64.5522 4.62639 59.7766 0 53.8856 0Z" fill="#CDF0FF"/>
<path fill-rule="evenodd" clip-rule="evenodd" d="M31.3092 12.9166H31.1289C29.5705 12.9166 28.2724 12.9166 27.2428 13.051C26.1543 13.192 25.1715 13.5043 24.3828 14.2684C23.5924 15.0341 23.27 15.9861 23.1244 17.039C22.9857 18.0381 22.9857 19.2975 22.9857 20.8054V20.9363C19.4827 21.0472 17.3784 21.4434 15.9172 22.8607C13.8857 24.827 13.8857 27.994 13.8857 34.326C13.8857 40.6583 13.8857 43.8252 15.9172 45.7914C17.9487 47.7578 21.216 47.7593 27.7524 47.7593H34.6857C41.222 47.7593 44.4911 47.7593 46.5209 45.7914C48.5505 43.8234 48.5524 40.6583 48.5524 34.326C48.5524 27.994 48.5524 24.827 46.5209 22.8607C45.0596 21.4434 42.9553 21.0472 39.4524 20.9363V20.8054C39.4524 19.2975 39.4524 18.0381 39.3137 17.0407C39.1681 15.9861 38.8457 15.0341 38.0553 14.27C37.2665 13.5043 36.2839 13.192 35.1953 13.051C34.1657 12.9166 32.8657 12.9166 31.3092 12.9166ZM36.8524 20.896V20.8927C36.8524 19.274 36.8489 18.1859 36.738 17.3748C36.6287 16.6007 36.4433 16.2682 36.218 16.05C35.9927 15.8317 35.6495 15.652 34.8487 15.5462C34.0132 15.4387 32.89 15.4354 31.2191 15.4354C29.5481 15.4354 28.4249 15.4387 27.5876 15.5479C26.7887 15.652 26.4455 15.8317 26.2201 16.0516C25.9948 16.2716 25.8093 16.6007 25.7001 17.3748C25.5909 18.1859 25.5857 19.274 25.5857 20.8927V20.896C26.2641 20.8938 26.9863 20.8927 27.7524 20.8927H34.6857C35.4508 20.8927 36.1729 20.8938 36.8524 20.896ZM39.8857 25.9302C39.8857 26.3755 39.7031 26.8026 39.378 27.1175C39.0529 27.4324 38.6121 27.6093 38.1524 27.6093C37.6927 27.6093 37.2519 27.4324 36.9268 27.1175C36.6017 26.8026 36.4191 26.3755 36.4191 25.9302C36.4191 25.4848 36.6017 25.0577 36.9268 24.7428C37.2519 24.4279 37.6927 24.251 38.1524 24.251C38.6121 24.251 39.0529 24.4279 39.378 24.7428C39.7031 25.0577 39.8857 25.4848 39.8857 25.9302ZM24.2857 27.6093C24.7454 27.6093 25.1863 27.4324 25.5114 27.1175C25.8365 26.8026 26.0191 26.3755 26.0191 25.9302C26.0191 25.4848 25.8365 25.0577 25.5114 24.7428C25.1863 24.4279 24.7454 24.251 24.2857 24.251C23.826 24.251 23.3852 24.4279 23.0601 24.7428C22.735 25.0577 22.5524 25.4848 22.5524 25.9302C22.5524 26.3755 22.735 26.8026 23.0601 27.1175C23.3852 27.4324 23.826 27.6093 24.2857 27.6093Z" fill="#29A0DE"/>
</g>
</g>
<defs>
<clipPath id="clip0_1008_1739">
<rect width="64" height="62" fill="white" transform="translate(0.552246)"/>
</clipPath>
</defs>
</svg>
